/* XPM */
static char *_e380c4031154e5dc90eb6ab4ad10d5fMqJXXxdZPbyccssA[] = {
/* columns rows colors chars-per-pixel */
"100 100 33 1 ",
"  c #265AEF",
". c #265BEF",
"X c #275BEF",
"o c #275CEF",
"O c #408CED",
"+ c #4592F1",
"@ c #53ACEE",
"# c #52ACEF",
"$ c #52A9F2",
"% c #52AAF2",
"& c #5AB8F1",
"* c #5AB9F1",
"= c #5BBAF1",
"- c #5CBBF1",
"; c #5FC0F2",
": c #5FC1F2",
"> c #61C4F3",
", c #63C5F3",
"< c #63C6F3",
"1 c #63C8F3",
"2 c #64C9F3",
"3 c #64CAF3",
"4 c #65CCF3",
"5 c #65CBF4",
"6 c #66CBF4",
"7 c #67CDF4",
"8 c #68CFF4",
"9 c #69CFF4",
"0 c #69D0F4",
"q c #69D0F5",
"w c #6BD3F5",
"e c #6BD4F5",
"r c #6CD4F5",
/* pixels */
"                                                                                                    ",
"                                                                                                    ",
"                                                                                                    ",
"                                                                                                    ",
"                                                                       o                            ",
"      ooooooooooooooooo ooo ooooooo   ooooo   oooo   oooooooooooooooooooooooooooooo ooo             ",
"     o+%%%%%%%%%%%%%%%%%%%%%%%%%%%%%%%%%%%%%%%%%%%%%%%%%%%%%%%%%%%%%%%%%%%%%%%%%%%%%%%%%%%%%%O      ",
"     o%4222222222222221112212>222222222222<2>222222222222222222222222122222222222242222211222O      ",
"     o%21111111111111111111111112111111111111111111111112111111111111111111111112111112111112O      ",
"     o%21111111111111111111111112111111111111111111111111111111111111111111111111111114111112O      ",
"     o%21111111111111111111111211111111111111111111111111111111111111111111111211111112211111O      ",
"     o%21111111111111111111111221111111111111111111111111111111111111111111111211111112211112O      ",
"     o%21111;;;;;;;;;;;;111;>->-;;;;;;;;;;;;;;;;;;;;;;;;;;;;;;;;;;;;;;;;;;;;>->-;;;;;;>-11111Oo     ",
"     o%21111;&&&&&&&&&&&&&&&&&&&&&&&&&&&&&&&&&&&&&&&&&&&&&&&&&&&&&&&&&&&&&&&&&&&&&&&&&&#11112O      ",
"     o%21111;&&&&&&&&&&&&&&&&&&&&&&&&&&&&&&&&&&&&&&&&&&&&&&&&&&&&&&&&&&&&&&&&&&&&&&&&&&#11111Oo     ",
"     o%21111;&&&&&&&&&&&&&&&&&&&&&&&&&&&&&&&&&&&&&&&&&&&&&&&&&&&&&&&&&&&&&&&&&&&&&&&&&&#11111Oo     ",
"     o%21111;&&&&&&&&&&&&&&&&&&&&&&&&&&&&&&&&&&&&&&&&&&&&&&&&&&&&&&&&&&&&&&&&&&&&&&&&&&#11112OX     ",
"     o%21111;&&&&&&&&&&&&&&&&&&&&&&&&&&&&&&&&&&&&&&&&&&&&&&&&&&&&&&&&&&&&&&&&&&&&&&&&&&#1111<OX     ",
"     o%21111;&&&&&&&&&&&&&&&&&&&&&&&&&&&&&&&&&&&&&&&&&&&&&&&&&&&&&&&&&&&&&&&&&&&&&&&&&&#11112Oo     ",
"     o%21111;&&&&&&&&&&&&&&&&&&&&&&&&&&&&&&&&&&&&&&&&&&&&&&&&&&&&&&&&&&&&&&&&&&&&&&&&&&#1122>Oo     ",
"     o%21111;&&&&&&&&&&&&&&&&&&&&&&&&&&&&&&&&&&&&&&&&&&&&&&&&&&&&&&&&&&&&&&&&&&&&&&&&&&#1111>Oo     ",
"     o%21111;&&&&&&&&&&&&&&&&&&&&&&&&&&&&&&&&&&&&&&&&&&&&&&&&&&&&&&&&&&&&&&&&&&&&&&&&&&#11112Oo     ",
"     o%21111;&&&&&&&&&&&&&&&&&&&&&&&&&&&&&&&&&&&&&&&&&&&&&&&&&&&&&&&&&&&&&&&&&&&&&&&&&&#1111<O      ",
"     o%21111;&&&&&&&&&&&&&&&&&&&&&&&&&&&&&&&&&&&&&&&&&&&&&&&&&&&&&&&&&&&&&&&&&&&&&&&&&&#11112Oo     ",
"     o%21111;&&&&&&&&&&&&-------&---->&&&&&&&&&&&&&&&&&&&&&&&&&----&-------&&&&&&&&&&&&#11111Oo     ",
"     o%21111;&&&&&&&&&&&&8qqqerqq8qqq<&&&&&&&&&&&&&&&&&&&&&&&&>qqqrerqqqqq4-&&&&&&&&&&&#11111Oo     ",
"     o%21111;&&&&&&&&&&&-qeqrrrqrqrq8<&&&&&&&&&&&&&&&&&&&&&&&&<rqrqeqrqerrq-&&&&&&&&&&&#11111Oo     ",
"     o%21111;&&&&&&&&&&&-qrrqererrrrr>&&&&&&&&&&&&&&&&&&&&&&&&>rerrrrrrrrqq-&&&&&&&&&&&#11111O      ",
"     o%21111;&&&&&&&&&&&-qrreqrrqrqrr<&&&&&&&&&&&&&&&&&&&&&&&&2qqrrrqeqerrq-&&&&&&&&&&&#11112OX     ",
"     o%21111;&&&&&&&&&&&-qqerrqerrrrr<&&&&&&&&&&&&&&&&&&&&&&&&<rereqrrrreqq-&&&&&&&&&&&#1111<OX     ",
"     o%21111;&&&&&&&&&&&-qerererrr8rr-&&&&&&&&&&&&&&&&&&&&&&&&<rqrqereqrqeq-&&&&&&&&&&&#11122Oo     ",
"     o%21111;&&&&&&&&&&&-qqrqrqrrqrrr855558<&&&&&&&&&&&&>75774qqerrrrqerrrq-&&&&&&&&&&&#1112>O      ",
"    o %2112<;&&&&&&&&&&&&8rrqrrrreqrrrreeqr7&&&&&&&&&&&&7qerereqreqeqrreqeq&&&&&&&&&&&&%11111Oo     ",
"     o%21112;&&&&&&&&&&&-8eqrrqqrqereqrqrrr7&&&&&&&&&&&&7rqeqrrrrqrrerrqrrq-&&&&&&&&&&&#11111Oo     ",
"    o %21142;&&&&&&&&&&&-ererqrrrrrrqereeqer&&&&&&&&&&&&7eeerqeqrerrqeqeerq-&&&&&&&&&&&#11111Oo     ",
"   o o%111<>;&&&&&&&&&&&&8rqrrqreqeqrrrqrrqr&&&&&&&&&&&&7qqererrrqeqrrrrqrq-&&&&&&&&&&&#11111O      ",
"     o%11111;&&&&&&&&&&&-8rrrrrrqeqerrreeqrq&&&&&&&&&&&&7qrqereqreqeqrrqrrq&&&&&&&&&&&&#11112Oo     ",
"    o %51111>&&&&&&&&&&&&2<<<<>8rrrreqrqrrrq<<<<<<::-:::qereqrrrrqrrq<><<<<&&&&&&&&&&&&#1111<OX     ",
"     o%21111-&&&&&&&&&&&&&&&&&&5reqrqereeqerqrreeq715111qqrrrqeqrerr4&&&&&&&&&&&&&&&&&&#11122O      ",
"    o %21111>&&&&&&&&&&&&&&&&&&5rqerrrrqrrqrqerqqe111111qeqererrrqeq8&&&&&&&&&&&&&&&&&&#1112>Oo     ",
"      %51111-&&&&&&&&&&&&&&&&&&5rrrerr8rqrqrreqeeq411112qrrrereqrrer7&&&&&&&&&&&&&&&&&&#21112Oo     ",
"     o%11111>&&&&&&&&&&&&&&&&&-8eqrqr8rrrrerrqrrqq111112qeqeqrrrqeqr7&&&&&&&&&&&&&&&&&&#21112O      ",
"    o %21111-&&&&&&&&&&&&&&&&&&4rqrerrrqrrqrrerrrq21112>0qrrqreqqrrr5&&&&&&&&&&&&&&&&&&#1111>Oo     ",
"     o%21111>&&&&&&&&&&&&&&&&&&>85555qrreqerrqeqee71727480000q845778<&&&&&&&&&&&&&&&&&&#11112Oo     ",
"    oo%51111>&&&&&&&&&&&&&&&&&&&&&&&&5rrqrreqrreereqrrer41112>>&&&&&&&&&&&&&&&&&&&&&&&&#11111Oo     ",
"      %>1111-&&&&&&&&&&&&&&&&&&&&&&&&<qrerrqerrqqrrrqeqr411122-&&&&&&&&&&&&&&&&&&&&&&&&#11111O      ",
"     o%221<8>&&&&&&&&&&&&&&&&&&&&&&&&<8rqeqeqeqerqeqrreq2211>2>&&&&&&&&&&&&&&&&&&&&&&&&#11111Oo     ",
"      %22>2<-&&&&&&&&&&&&&&&&&&&&&&&&<8rrrrrrrrrrerrqeer22122>>&&&&&&&&&&&&&&&&&&&&&&&&#11111Oo     ",
"     o%22<11;&&&&&&&&&&&&&&&&&&&&&&&&<eeeeeqrrrrereqrrer712111-&&&&&&&&&&&&&&&&&&&&&&&&#11112OX     ",
"     o%21211;&&&&&&&&&&&&&&&&&&&&&&&&>qeqeqqeqeqqrrrqeqr745522;&&&&&&&&&&&&&&&&&&&&&&&&#1111<OX     ",
"     o%21111;&&&&&&&&&&&&&&&&&&&&&&&&>115227qrrerqeqrrrq8eqqqq1&&&&&&&&&&&&&&&&&&&&&&&&#11112Oo     ",
"     o%21111;&&&&&&&&&&&&&&&&&&&&&&&--112>17errqrerrqereeqeerq1&&&&&&&&&&&&&&&&&&&&&&&&#1122>Oo     ",
"     o%21111;&&&&&&&&&&&&&&&&&&&&&&&&;112117reqeeqrreqrrqeqerq1&&&&&&&&&&&&&&&&&&&&&&&&#1111>Oo     ",
"     o%21111;&&&&&&&&&&&&&&&&&&&&&&&&;1111>7rqrrrrqerrqerrrrre>&&&&&&&&&&&&&&&&&&&&&&&&#11112Oo     ",
"     o%21111;&&&&&&&&&&&&&&&&&&&&&&&&;111125reeeererererreqrqe2&&&&&&&&&&&&&&&&&&&&&&&&#1111<O      ",
"     o%21111;&&&&&&&&&&&&&&&&&&&&&&&&;111115rqeqqrqrqrqrrqerrr<&&&&&&&&&&&&&&&&&&&&&&&&#11112Oo     ",
"     o%21111;&&&&&&&&&&&&&&&&&&<857777qq0000447257qerqrqreqrrrq42755<&&&&&&&&&&&&&&&&&&#11111Oo     ",
"     o%21111;&&&&&&&&&&&&&&&&&&6rqer8eeeerq02<11<7qrrerrrqereqqrerrr5&&&&&&&&&&&&&&&&&&#11111Oo     ",
"     o%21111;&&&&&&&&&&&&&&&&&&5rqeqrrqrqrq0211122qreqqrrrrrqerrqrqe5&&&&&&&&&&&&&&&&&&#11111Oo     ",
"     o%21111;&&&&&&&&&&&&&&&&&-8eeeeeqererr0111111qerrrreqeqrrrqerrr6-&&&&&&&&&&&&&&&&&#11111O      ",
"     o%21111;&&&&&&&&&&&&&&&&&&4rrrrqeqrqrrq11121>qqrrqqqeqerrreqrrr4&&&&&&&&&&&&&&&&&&#11112Oo     ",
"     o%21111;&&&&&&&&&&&&&&&&&&2eqeqrrereeeq111717qrqrrrrrrreqrqereq2&&&&&&&&&&&&&&&&&&#1111<Oo     ",
"     o%21111;&&&&&&&&&&&&>221>1qqrrerrqrqrq7;;>-->2><<<<qeqrqereqrqrq2>22>>&&&&&&&&&&&&#11122O      ",
"     o%21111;&&&&&&&&&&&-qrqrrqqerrqeqereee7&&&&&&&&&&&-4qerrrrqerrrqrrrqr0&&&&&&&&&&&&#1112>Oo     ",
"     o%21111;&&&&&&&&&&&-eqrrrrerrereqrrere2&&&&&&&&&&&&58rrrrqrreqrrrreeqq&&&&&&&&&&&&#22111Ooo    ",
"     o%21111;&&&&&&&&&&&-qereqrqqeqrrrqeqrr7&&&&&&&&&&&&8rr8rqerrqereqrqrrq-&&&&&&&&&&&#11111O      ",
"     o%21111;&&&&&&&&&&&-rrrqererrrqererrqq7-&&&&&&&&&&&5qrrrrrrrrrrqereeqq-&&&&&&&&&&&#11111Oo     ",
"     o%21111;&&&&&&&&&&&-qeqrrrqqereqrqrrrr5&&&&&&&&&&&&7rr8rqeqeqeqrrrqrrq-&&&&&&&&&&&#1111>Oo     ",
"     o%21111;&&&&&&&&&&&-qqerrrerrerq882555<&&&&&&&&&&&&>7rrr58rqeqerrreeqq-&&&&&&&&&&&#11112Oo     ",
"     o%21111;&&&&&&&&&&&-qrreqrqqeqrr1&&&-&&&&&&&&&&&&&&&&&&&&2rrrrreqrqrrq-&&&&&&&&&&&#11112O      ",
"     o%21111;&&&&&&&&&&&-qqrqererrrqr>&&&&&&&&&&&&&&&&&&&&&&&&>qreqrqereeqq-&&&&&&&&&&&#11112Oo     ",
"     o%21111;&&&&&&&&&&&-qerrrrqqerrr>&&&&&&&&&&&&&&&&&&&&&&&&5qrqerrrrqrrq-&&&&&&&&&&&%1122>Oo     ",
"     o%21111;&&&&&&&&&&&-qrrereqeqrqr1&&&&&&&&&&&&&&&&&&&&&&&&<rrrrerrrrerq-&&&&&&&&&&&#11111O      ",
"     o%21111;&&&&&&&&&&&-qqrqrrreereq1&&&&&&&&&&&&&&&&&&&&&&&&<reqrqqrqrqrq-&&&&&&&&&&&#11111O      ",
"     o%21111;&&&&&&&&&&&-qqqqqqqqqqqq2&&&&&&&&&&&&&&&&&&&&&&&&<8qqqqqqerqe7-&&&&&&&&&&&#11111O      ",
"     o%21111;&&&&&&&&&&&&-&------;-&-&&&&&&&&&&&&&&&&&&&&&&&&&&-&&&---&---&&&&&&&&&&&&&#11111O      ",
"     o%21111;&&&&&&&&&&&&&&&&&&&&&&&&&&&&&&&&&&&&&&&&&&&&&&&&&&&&&&&&&&&&&&&&&&&&&&&&&&#11111Oo     ",
"     o%21111;&&&&&&&&&&&&&&&&&&&&&&&&&&&&&&&&&&&&&&&&&&&&&&&&&&&&&&&&&&&&&&&&&&&&&&&&&&#11111O      ",
"     o%21111;&&&&&&&&&&&&&&&&&&&&&&&&&&&&&&&&&&&&&&&&&&&&&&&&&&&&&&&&&&&&&&&&&&&&&&&&&&#11112Oo     ",
"     o%21111;&&&&&&&&&&&&&&&&&&&&&&&&&&&&&&&&&&&&&&&&&&&&&&&&&&&&&&&&&&&&&&&&&&&&&&&&&&#1122>Oo     ",
"     o%21111;&&&&&&&&&&&&&&&&&&&&&&&&&&&&&&&&&&&&&&&&&&&&&&&&&&&&&&&&&&&&&&&&&&&&&&&&&&#11111O      ",
"     o%21111;&&&&&&&&&&&&&&&&&&&&&&&&&&&&&&&&&&&&&&&&&&&&&&&&&&&&&&&&&&&&&&&&&&&&&&&&&&#11111Oo     ",
"     o%21111;&&&&&&&&&&&&&&&&&&&&&&&&&&&&&&&&&&&&&&&&&&&&&&&&&&&&&&&&&&&&&&&&&&&&&&&&&&#11112O      ",
"     o%21111;&&&&&&&&&&&&&&&&&&&&&&&&&&&&&&&&&&&&&&&&&&&&&&&&&&&&&&&&&&&&&&&&&&&&&&&&&&#1111<Oo     ",
"     o%21111;&&&&&&&&&&&&&&&&&&&&&&&&&&&&&&&&&&&&&&&&&&&&&&&&&&&&&&&&&&&&&&&&&&&&&&&&&&#11112Ooo    ",
"     o%21111;&&&&&&&&&&&&&&&&&&&&&&&&&&&&&&&&&&&&&&&&&&&&&&&&&&&&&&&&&&&&&&&&&&&&&&&&&&#1111>O      ",
"     o%41111;&&&&&&&&&&&&&&&&&&&&&&&&&&&&&&&&&&&&&&&&&&&&&&&&&&&&&&&&&&&&&&&&&&&&&&&&&&#11112Oo     ",
"      %11111>################&&&#######%#################@@@%@@##########%@@@%@########>11112O      ",
"      %21211111111111111111111111111111111111111211111111111111121111111111111111111111111111O      ",
"      %21211111111111111111111111111111111111112111111111111111111111111111111111111111111111O      ",
"      %2242111111111112211111111112<11111111112<11111111112>111111111111112>11111111111111111O      ",
"      %222221111111111>21111111112<511111111112<111111111122111111111111112211111111112211111O      ",
"      %2222<2>2<1>22<2>222>21>22<<<<<<<>1>22<<<24<>>1>22<2>22>122>111>22<2>22>2<1>22211>2<2>1O      ",
"      O%%%%%%%%%%%%%%%%%%%%%%%%%%%%%%%%%%%%%%%%$%%%%#%%%%%%%%%%%%%;%%%%%%%%%%%%%%%%%%%%%%%%%%+      ",
"             XXXXX XXXXX ooX o o oXoooo  o   oo    oo   XXXXoX       o  X   XXXXX   o               ",
"                                 o  o      o   o o     o                                            ",
"                                                                                                    ",
"                                                                                                    ",
"                                                                                                    ",
"                                                                                                    "
};
